# xmcd
#
# Track frame offsets:
#	150
#	11748
#	23491
#	33830
#	48819
#	60323
#	73973
#	80954
#	92880
#	108161
#	119155
#	154140
#
# Disc length: 2160 seconds
#
# Revision: 1
# Processed by: cddbd v1.5.2PL0 Copyright (c) Steve Scherf et al.
# Submitted via: audiograbber 1.83.01
#
DISCID=99086e0c
DTITLE=John Denver - Leaving on a Jet Plane
DYEAR=68
DGENRE=
TTITLE0=Leaving on  Jet Plane (The Mitchell Trio) (Electric Version)
TTITLE1=Baby, that's where it is (The Mitchell Trio)
TTITLE2=Like to Deal With the Ladies (The Mitchell Trio)
TTITLE3=Both Sides Now (Denver, Boise, Johnson)
TTITLE4=Take Me Tommorrow (Denver, Boise, Johnson)
TTITLE5=Victoria Dines Alone (Denver, Boise, Johnson)
TTITLE6=68 Nixon (This years Model)(Denver, Boise, Johnson)
TTITLE7=Yellow Cat (Denver, Boise, Johnson)
TTITLE8=Leaving on a Jet Plane (The Mitchell Trio)
TTITLE9=She Loves You (The Mitchell Trio)
TTITLE10=He Was a Friend of Mine (The Mitchell Trio)
TTITLE11=If You Had Me in Shackles (The Mitchell Trio)
EXTD=
EXTT0=
EXTT1=
EXTT2=
EXTT3=
EXTT4=
EXTT5=
EXTT6=
EXTT7=
EXTT8=
EXTT9=
EXTT10=
EXTT11=
PLAYORDER=
